{"title":"The Dark Knight-720p MP4 AAC x264 BRRip 2008-CC","uid":7714823,"size":3353914197,"categoryP":"video","categoryS":"hd___movies","magnet":"?xt=urn:btih:94eb073dd8755919c45b561c40488dca2ad4ea01&amp;dn=The+Dark+Knight-720p+MP4+AAC+x264+BRRip+2008-CC&amp;tr=udp%3A%2F%2Ftracker.openbittorrent.com%3A80&amp;tr=udp%3A%2F%2Fopen.demonii.com%3A1337&amp;tr=udp%3A%2F%2Ftracker.coppersurfer.tk%3A6969&amp;tr=udp%3A%2F%2Fexodus.desync.com%3A6969","seeders":0,"leechers":0,"uploader":"Caveman44","files":-1,"time":1349900942,"description":" &lt;a href=&quot;http://www.imdb.com/title/tt0468569/&quot; rel=&quot;nofollow&quot; target=&quot;_NEW&quot;&gt;http://www.imdb.com/title/tt0468569/&lt;/a&gt;\n\nSource: The.Dark.Knight.1080p.BluRay.x264-HD1080 Thanks!\n\nSubs: Arabic, Brazilian, Bulgarian, Croatian, Czech, Danish, Dutch, English HI, English, Estonian, Finnish, French, Greek, Hebrew, Hungarian, Indonesian, Japanese, Latvian, Lithuanian, Norwegian, Persian, Polish, Portuguese, Romanian, Russian, Serbian, Slovak, Slovenian, Spanish, Swedish, Turkish and Vietnamese.\n\nSample and Screens included.\n\nGeneral\nComplete name                            : The Dark Knight-720p MP4 AAC x264 BRRip 2008-CC.mp4\nFormat                                   : MPEG-4\nFormat profile                           : Base Media\nCodec ID                                 : isom\nFile size                                : 3.09 GiB\nDuration                                 : 2h 32mn\nOverall bit rate mode                    : Variable\nOverall bit rate                         : 2 902 Kbps\nEncoded date                             : UTC 2012-10-07 15:26:03\n\nVideo\nID                                       : 1\nFormat                                   : AVC\nFormat/Info                              : Advanced Video Codec\nFormat profile                           : &lt;a class=&quot;__cf_email__&quot; href=&quot;/cdn-cgi/l/email-protection&quot; data-cfemail=&quot;1e567779765e522a302f&quot;&gt;[email&amp;#160;protected]&lt;/a&gt;&lt;script cf-hash='f9e31' type=&quot;text/javascript&quot;&gt;\n/* &lt;![CDATA[ */!function(){try{var t=&quot;currentScript&quot;in document?document.currentScript:function(){for(var t=document.getElementsByTagName(&quot;script&quot;),e=t.length;e--;)if(t[e].getAttribute(&quot;cf-hash&quot;))return t[e]}();if(t&amp;&amp;t.previousSibling){var e,r,n,i,c=t.previousSibling,a=c.getAttribute(&quot;data-cfemail&quot;);if(a){for(e=&quot;&quot;,r=parseInt(a.substr(0,2),16),n=2;a.length-n;n+=2)i=parseInt(a.substr(n,2),16)^r,e+=String.fromCharCode(i);e=document.createTextNode(e),c.parentNode.replaceChild(e,c)}}}catch(u){}}();/* ]]&gt; */&lt;/script&gt;\nFormat settings, CABAC                   : Yes\nFormat settings, ReFrames                : 5 frames\nCodec ID                                 : avc1\nCodec ID/Info                            : Advanced Video Coding\nDuration                                 : 2h 32mn\nBit rate                                 : 2 523 Kbps\nMaximum bit rate                         : 19.5 Mbps\nWidth                                    : 1 280 pixels\nHeight                                   : 528 pixels\nDisplay aspect ratio                     : 2.40:1\nFrame rate mode                          : Variable\nFrame rate                               : 23.976 fps\nMinimum frame rate                       : 7.992 fps\nMaximum frame rate                       : 23.981 fps\nColor space                              : YUV\nChroma subsampling                       : 4:2:0\nBit depth                                : 8 bits\nScan type                                : Progressive\nBits/(Pixel*Frame)                       : 0.156\nStream size                              : 2.67 GiB (87%)\nWriting library                          : x264 core 112\n\nAudio\nID                                       : 2\nFormat                                   : AAC\nFormat/Info                              : Advanced Audio Codec\nFormat profile                           : LC\nCodec ID                                 : 40\nDuration                                 : 2h 32mn\nBit rate mode                            : Variable\nBit rate                                 : 384 Kbps\nMaximum bit rate                         : 648 Kbps\nChannel(s)                               : 6 channels\nChannel positions                        : Front: L C R, Side: L R, LFE\nSampling rate                            : 48.0 KHz\nCompression mode                         : Lossy\nDelay relative to video                  : 167ms\nStream size                              : 417 MiB (13%)\nLanguage                                 : English\n\nEnjoy...\n\nRequested by cmptrluvr's. \n\nComing up: Taking of Pelham, Hard Candy, Cast Away and more..","torrent":{"xt":"urn:btih:94eb073dd8755919c45b561c40488dca2ad4ea01","amp;dn":"The+Dark+Knight-720p+MP4+AAC+x264+BRRip+2008-CC","amp;tr":["udp%3A%2F%2Ftracker.openbittorrent.com%3A80","udp%3A%2F%2Fopen.demonii.com%3A1337","udp%3A%2F%2Ftracker.coppersurfer.tk%3A6969","udp%3A%2F%2Fexodus.desync.com%3A6969"],"infoHash":"94eb073dd8755919c45b561c40488dca2ad4ea01","infoHashBuffer":{"type":"Buffer","data":[148,235,7,61,216,117,89,25,196,91,86,28,64,72,141,202,42,212,234,1]},"announce":[],"urlList":[]}}